<svg id="visual" viewBox="0 0 960 540" xmlns="http://www.w3.org/2000/svg" version="1.1">
    <path
    d="M0 53L26.7 53.3C53.3 53.7 106.7 54.3 160 55.7C213.3 57 266.7 59 320 58C373.3 57 426.7 53 480 49.2C533.3 45.3 586.7 41.7 640 41.2C693.3 40.7 746.7 43.3 800 47.8C853.3 52.3 906.7 58.7 933.3 61.8L960 65L960 0L933.3 0C906.7 0 853.3 0 800 0C746.7 0 693.3 0 640 0C586.7 0 533.3 0 480 0C426.7 0 373.3 0 320 0C266.7 0 213.3 0 160 0C106.7 0 53.3 0 26.7 0L0 0Z"
    fill="#0d141e" stroke-linecap="round" stroke-linejoin="miter"></path>
</svg>
